<svg version="1.1" id="einkaufswagen" xmlns="http://www.w3.org/2000/svg" xmlns:xlink="http://www.w3.org/1999/xlink" x="0px"
	 y="0px" width="45px" height="40px" viewBox="0 0 45 40"  xml:space="preserve">
<g>
	<path d="M43.4,0.4H38c-1.1,0-2.1,0.8-2.3,1.8l-0.7,3.1H2.7C2,5.3,1.3,5.6,0.9,6.2c-0.4,0.6-0.6,1.3-0.5,2l3.2,15.6
		c0.2,1.1,1.2,1.9,2.3,1.9l24.7-0.1L30,28.4H6c-0.7,0-1.3,0.6-1.3,1.3s0.6,1.3,1.3,1.3h24.2c1.1,0,2.1-0.8,2.3-1.8l5.7-26.1h5.2
		c0.7,0,1.3-0.6,1.3-1.3S44.1,0.4,43.4,0.4z M6.1,23.1L3,7.8h8.2L12.2,23L6.1,23.1z M21.7,23l-6.9,0L13.7,7.8h9.5L21.7,23z
		 M31.2,22.9l-7,0l1.6-15.1h8.7L31.2,22.9z"/>
	<circle cx="26.5" cy="36.4" r="3.3"/>
	<circle cx="10.6" cy="36.4" r="3.3"/>
</g>
</svg>
